<svg xmlns="http://www.w3.org/2000/svg" preserveAspectRatio="xMaxYMax" viewBox="0 0 32 32" height="17" width="17" focusable="false" class="sc-htpNat fPgaxB"><g><path stroke="none" fill="#c00" d="M8.9,0.5C7.9,0.2,6.4,0.6,5.6,1.4L1.4,5.6C0.6,6.3,0.2,7.9,0.5,8.9L2,14.6c0.3,1.1,1.1,2.6,1.9,3.3l12.7,12.7c0.8,0.8,2.1,0.8,2.8,0l11.1-11.1c0.8-0.8,0.8-2.1,0-2.8L17.9,3.9c-0.8-0.8-2.3-1.6-3.3-1.9L8.9,0.5z M10.4,10.4c-1.2,1.2-3.2,1.2-4.4,0c-1.2-1.2-1.2-3.2,0-4.4c1.2-1.2,3.2-1.2,4.4,0C11.7,7.3,11.7,9.2,10.4,10.4z"></path></g></svg>
